<svg width="16" height="16" viewBox="0 0 16 16" fill="none" xmlns="http://www.w3.org/2000/svg">
<path d="M5.82089 0.358979C5.85258 0.255313 5.91834 0.164309 6.00833 0.099594C6.09832 0.0348791 6.20768 -6.31827e-05 6.32006 8.57665e-08H10.4798C10.5621 6.01901e-05 10.6433 0.0189249 10.7166 0.0550411C10.7899 0.0911574 10.8532 0.143492 10.9013 0.207738C10.9494 0.271983 10.981 0.346302 10.9934 0.424575C11.0058 0.502849 10.9987 0.582839 10.9727 0.657961L9.12164 5.99964H13.0796C13.177 5.99958 13.2724 6.0258 13.3551 6.07534C13.4377 6.12487 13.5042 6.19572 13.547 6.27981C13.5898 6.36391 13.6072 6.45787 13.5972 6.551C13.5872 6.64413 13.5502 6.73269 13.4904 6.8066L6.21086 15.8061C6.13629 15.8987 6.03025 15.9632 5.91126 15.9884C5.79226 16.0135 5.66787 15.9977 5.55978 15.9436C5.45169 15.8896 5.36677 15.8007 5.31984 15.6926C5.27291 15.5845 5.26695 15.464 5.303 15.3521L7.17592 9.49943H3.72022C3.63938 9.49948 3.55965 9.4814 3.48734 9.44663C3.41504 9.41187 3.35217 9.36137 3.30371 9.29915C3.25526 9.23693 3.22256 9.1647 3.20821 9.08821C3.19386 9.01171 3.19826 8.93305 3.22105 8.85847L5.82089 0.358979Z" fill="#10B981"/>
</svg>
